<svg width="24" height="24" viewBox="0 0 24 24" fill="none" xmlns="http://www.w3.org/2000/svg">
<path d="M12 19.164L6.84599 21.462C6.65352 21.5479 6.44183 21.5816 6.23222 21.5597C6.0226 21.5377 5.82246 21.461 5.65191 21.3372C5.48137 21.2133 5.34645 21.0468 5.26073 20.8542C5.175 20.6617 5.1415 20.45 5.16359 20.2404L5.75639 14.628L1.97999 10.4376C1.83912 10.2811 1.74193 10.0902 1.69817 9.88426C1.6544 9.67828 1.66561 9.46441 1.73067 9.26414C1.79573 9.06387 1.91234 8.88424 2.06879 8.74329C2.22524 8.60235 2.41603 8.50506 2.62199 8.4612L8.14199 7.29L10.9608 2.4C11.0661 2.21759 11.2176 2.06612 11.4 1.9608C11.5824 1.85549 11.7894 1.80005 12 1.80005C12.2106 1.80005 12.4175 1.85549 12.6 1.9608C12.7824 2.06612 12.9339 2.21759 13.0392 2.4L15.8592 7.2888L21.3792 8.46C21.5851 8.50386 21.7759 8.60115 21.9324 8.74209C22.0888 8.88304 22.2054 9.06266 22.2705 9.26294C22.3356 9.46321 22.3468 9.67708 22.303 9.88306C22.2592 10.089 22.162 10.2799 22.0212 10.4364L18.2436 14.6292L18.8364 20.2404C18.8585 20.45 18.825 20.6617 18.7392 20.8542C18.6535 21.0468 18.5186 21.2133 18.3481 21.3372C18.1775 21.461 17.9774 21.5377 17.7678 21.5597C17.5581 21.5816 17.3465 21.5479 17.154 21.462L12 19.164Z" fill="#999999"/>
</svg>
